<svg xmlns="http://www.w3.org/2000/svg" viewBox="0 0 512.002 512.002" width="512" height="512"><path d="M506.706 132.995L379.007 5.296c-7.047-7.054-18.456-7.06-25.528-.03L208.915 149.228a18.064 18.064 0 0 0-.024 25.582l31.925 31.925c7.054 7.06 18.498 7.06 25.558 0 7.054-7.054 7.054-18.498 0-25.552l-19.125-19.125L366.201 43.6l102.201 102.195-118.464 118.959-19.119-19.119c-7.06-7.06-18.492-7.06-25.552 0-7.06 7.054-7.06 18.498 0 25.552l31.925 31.925a18.049 18.049 0 0 0 12.776 5.295h.018a18.1 18.1 0 0 0 12.788-5.319l143.962-144.565c7.03-7.06 7.018-18.486-.03-25.528zM303.117 337.193l-31.925-31.925c-7.06-7.06-18.498-7.06-25.558 0-7.06 7.06-7.06 18.498 0 25.552l19.119 19.125-118.959 118.458L43.599 366.202l118.453-118.953 19.125 19.119c7.054 7.06 18.498 7.06 25.558 0 7.06-7.06 7.06-18.498 0-25.558l-31.925-31.925a18.079 18.079 0 0 0-12.776-5.289h-.018a18.07 18.07 0 0 0-12.788 5.319L5.265 353.48c-7.029 7.066-7.017 18.48.03 25.528l127.699 127.699a17.996 17.996 0 0 0 12.776 5.295 18.03 18.03 0 0 0 12.758-5.265l144.565-143.962a18.064 18.064 0 0 0 .024-25.582zm148.775 89.148l-59.633-59.633c-7.06-7.06-18.492-7.06-25.552 0-7.06 7.054-7.06 18.498 0 25.552l59.633 59.633a18.006 18.006 0 0 0 12.776 5.295c4.626 0 9.246-1.765 12.776-5.295 7.06-7.054 7.06-18.499 0-25.552zm38.147-88.275l-51.2-25.901c-8.903-4.506-19.769-.946-24.281 7.963-4.506 8.903-.946 19.775 7.963 24.281l51.2 25.901a18.003 18.003 0 0 0 8.15 1.952c6.596 0 12.951-3.632 16.131-9.915 4.506-8.903.946-19.775-7.963-24.281zM370.303 473.728l-25.901-51.2c-4.506-8.909-15.378-12.463-24.281-7.963-8.903 4.506-12.469 15.372-7.963 24.281l25.901 51.2c3.186 6.283 9.541 9.915 16.137 9.915 2.747 0 5.53-.632 8.144-1.952 8.903-4.506 12.469-15.372 7.963-24.281zM145.294 119.743L85.661 60.11c-7.054-7.06-18.498-7.06-25.552 0-7.06 7.054-7.06 18.498 0 25.552l59.633 59.633a17.996 17.996 0 0 0 12.776 5.295c4.626 0 9.252-1.765 12.776-5.295 7.06-7.053 7.06-18.498 0-25.552zm54.549-46.58l-25.901-51.2c-4.506-8.903-15.372-12.481-24.281-7.969-8.909 4.506-12.475 15.372-7.969 24.281l25.901 51.2c3.18 6.289 9.535 9.915 16.137 9.915 2.741 0 5.53-.626 8.144-1.946 8.909-4.505 12.475-15.372 7.969-24.281zM89.468 167.588l-51.2-25.901c-8.903-4.512-19.781-.94-24.281 7.969-4.506 8.909-.94 19.775 7.969 24.281l51.2 25.901a17.979 17.979 0 0 0 8.144 1.952c6.602 0 12.963-3.626 16.137-9.921 4.506-8.909.94-19.775-7.969-24.281z" data-original="#000000" class="active-path" data-old_color="#18cfab" fill="#18cfab"/></svg>