<svg xmlns="http://www.w3.org/2000/svg" width="512" height="512" viewBox="0 0 115.663 115.663"><path d="M105.912 25.558H9.537v60.168h96.375V25.558zm-1 59.168H10.537V26.558h94.375v58.168z" data-original="#000000" class="active-path" data-old_color="#18cfab" fill="#18cfab"/><path d="M115.623 89.256c-.102-.289-.36-.418-.607-.442l-5.93-.019c.367-.75.56-1.567.56-2.405V27.708a5.567 5.567 0 0 0-5.56-5.561H11.512a5.566 5.566 0 0 0-5.559 5.561V86.39c0 .862.203 1.705.595 2.476H.349l-.146.147c-.109.112-.601.726.509 1.832 2.421 2.422 7.616 2.649 7.836 2.657l.52.015v-.021c6.516.002 74.853.021 92.634.021 4.206 0 4.216-.002 4.209-.002 5.043 0 7.013-1.367 8.45-2.365.147-.103.288-.198.428-.291l.077-.063c.671-.675.899-1.136.757-1.54zM6.953 27.708a4.566 4.566 0 0 1 4.559-4.561h92.574a4.567 4.567 0 0 1 4.56 4.561V86.39c0 .849-.252 1.668-.709 2.396l-.232.016-100.043-.029a4.484 4.484 0 0 1-.709-2.385v-58.68zM64.221 90.07v.635H51.442v-.635h12.779zm49.968-.016c-.13.086-.263.18-.4.274-1.33.922-3.151 2.187-7.89 2.187-.605.008-97.334-.019-97.334-.019l-.081.002c-.717-.043-5.09-.383-7.067-2.36a2.693 2.693 0 0 1-.245-.274l50.021-.023v1.115H64.47v-1.121l49.945-.022c-.06.066-.133.146-.226.241z" data-original="#000000" class="active-path" data-old_color="#18cfab" fill="#18cfab"/></svg>