<svg xmlns="http://www.w3.org/2000/svg" width="512" height="512" viewBox="0 0 792 792"><path d="M614.582.128L494.197.184S491.758 0 487.371 0C462.67 0 337.754 6.863 303.768 140.809c-.532 1.486-11.965 35.014-12.148 112.988h-114.2c-10.129 0-18.351 8.221-18.351 18.351v105.226c0 10.13 8.222 18.351 18.351 18.351h124.898v377.924c0 10.13 8.221 18.352 18.351 18.352H463.68c10.129 0 18.352-8.222 18.352-18.352v-377.54h125.301c10.131 0 18.352-8.221 18.352-18.351v-105.61c0-10.13-8.221-18.351-18.352-18.351H482.287v-45.163c0-30.078 19.086-62.21 72.672-62.21h59.623c10.129 0 18.35-8.221 18.35-18.351V18.479c0-10.129-8.203-18.351-18.35-18.351zM596.23 109.722h-41.271c-75.553 0-109.373 49.677-109.373 98.913v63.514c0 10.13 8.221 18.351 18.35 18.351H588.98v68.909h-125.3c-10.131 0-18.352 8.221-18.352 18.351v377.539H339.02V377.374c0-10.13-8.221-18.351-18.351-18.351H195.771V290.5h114.346c4.936 0 9.652-1.982 13.103-5.505s5.34-8.276 5.249-13.213c-1.633-83.461 9.836-118.604 10.387-120.384C365.923 44.979 459.385 36.702 487.371 36.702c2.551 0 4.074.074 5.561.129H596.23v72.891z" fill="#FFF"/></svg>