<svg xmlns="http://www.w3.org/2000/svg" viewBox="0 0 297.331 297.331" width="512" height="512"><path d="M211.109 139.359c-6.748-4.383-14.962-8.149-24.441-11.189-9.036-2.879-19.191-5.534-30.084-7.873-8.419-1.947-14.576-3.451-18.246-4.473a53.83 53.83 0 0 1-9.595-3.715c-2.577-1.298-4.563-2.776-5.881-4.37-.848-1.048-1.208-2.159-1.208-3.734 0-1.825.617-4.319 5.399-7.455 4.717-3.098 11.331-4.672 19.64-4.672 11.658 0 16.575 2.41 18.458 3.843 3.882 2.95 7.314 7.23 10.328 12.982 3.284 5.643 6.24 9.525 9.28 12.198 3.895 3.458 9.21 5.212 15.784 5.212 7.159 0 13.516-2.661 18.368-7.706 4.769-4.955 7.288-10.964 7.288-17.372 0-6.041-1.665-12.198-4.949-18.304-3.175-5.9-8.13-11.504-14.724-16.658-6.478-5.045-14.595-9.107-24.139-12.076-9.415-2.924-20.553-4.409-33.117-4.409-15.714 0-29.679 2.224-41.492 6.6-12.404 4.582-22.102 11.356-28.85 20.142-6.902 9.004-10.405 19.428-10.405 30.984 0 12.095 3.381 22.462 10.064 30.83 6.324 7.905 14.904 14.21 25.495 18.715 9.756 4.152 21.941 7.802 36.26 10.861 9.955 2.082 18.014 4.081 23.953 5.932 4.891 1.517 8.856 3.676 11.787 6.414 2.179 2.037 3.143 4.512 3.143 8.014 0 3.046-.81 7.089-7.108 11.382-5.72 3.901-13.561 5.887-23.323 5.887-7.095 0-12.712-.951-16.684-2.834-3.85-1.819-6.825-4.087-8.83-6.722-2.423-3.207-4.756-7.359-6.909-12.275-2.519-5.919-5.739-10.579-9.608-13.876-4.422-3.721-9.775-5.604-15.932-5.604-7.159 0-13.509 2.391-18.361 6.935-4.968 4.685-7.603 10.669-7.603 17.314 0 9.178 3.265 18.548 9.711 27.841 6.228 8.965 14.39 16.202 24.293 21.549 13.516 7.179 30.643 10.823 50.913 10.823 16.87 0 31.768-2.641 44.281-7.847 12.969-5.386 23.053-13.072 29.968-22.854 6.986-9.904 10.534-21.202 10.534-33.574 0-10.334-2.108-19.325-6.266-26.704-4.114-7.287-9.898-13.393-17.192-18.162zm2.416 71.03c-5.489 7.77-13.702 13.959-24.409 18.4-10.932 4.55-24.171 6.857-39.339 6.857-18.149 0-33.246-3.13-44.846-9.293-8.079-4.364-14.743-10.27-19.801-17.539-4.923-7.102-7.417-14.01-7.417-20.514 0-3.143 1.131-5.675 3.541-7.944 2.487-2.32 5.617-3.451 9.57-3.451 3.085 0 5.591.842 7.629 2.558 2.307 1.967 4.364 5.026 6.112 9.158 2.584 5.906 5.437 10.926 8.471 14.949 3.278 4.312 7.847 7.873 13.573 10.579 5.707 2.706 13.169 4.075 22.179 4.075 12.397 0 22.68-2.738 30.572-8.13 8.438-5.752 12.719-13.156 12.719-21.999 0-7.057-2.423-12.905-7.217-17.404-4.37-4.081-10.007-7.204-16.742-9.3-6.324-1.973-14.782-4.068-25.11-6.228-13.49-2.892-24.891-6.292-33.882-10.116-8.612-3.67-15.502-8.696-20.489-14.917-4.807-6.028-7.249-13.696-7.249-22.802 0-8.663 2.609-16.453 7.751-23.162 5.238-6.832 13.014-12.185 23.117-15.913 10.379-3.85 22.847-5.797 37.031-5.797 11.273 0 21.131 1.285 29.306 3.83 8.053 2.5 14.801 5.848 20.045 9.936 5.186 4.042 8.985 8.291 11.311 12.609 2.269 4.21 3.413 8.323 3.413 12.211 0 3.104-1.208 5.874-3.689 8.458-2.449 2.539-5.431 3.766-9.113 3.766-2.294 0-5.418-.341-7.275-1.999-1.941-1.703-4.19-4.737-6.549-8.779-3.766-7.179-8.406-12.892-13.792-16.993-5.726-4.351-14.306-6.465-26.241-6.465-10.855 0-19.84 2.282-26.691 6.78-7.429 4.872-11.196 10.996-11.196 18.201 0 4.524 1.382 8.509 4.126 11.877 2.487 3.021 5.868 5.611 10.064 7.719 3.901 1.954 7.911 3.503 11.915 4.608 3.747 1.048 10.064 2.596 18.882 4.64 10.585 2.275 20.335 4.82 28.966 7.571 8.381 2.693 15.566 5.964 21.344 9.724 5.54 3.618 9.917 8.22 12.995 13.696 3.059 5.437 4.608 12.301 4.608 20.405-.018 9.653-2.775 18.451-8.193 26.138zm74.057-32.327a141.373 141.373 0 0 0 2.796-27.905c0-77.308-62.899-140.201-140.214-140.201-7.262 0-14.512.553-21.575 1.658A83.718 83.718 0 0 0 86.004 0C39.673 0 1.986 37.687 1.986 84.012a84.07 84.07 0 0 0 10.328 40.348 142.237 142.237 0 0 0-2.378 25.797c0 77.315 62.906 140.221 140.227 140.221 7.899 0 15.778-.662 23.464-1.967a84.26 84.26 0 0 0 37.7 8.92c46.331 0 84.018-37.681 84.018-83.999 0-12.333-2.609-24.184-7.763-35.27zm-76.255 106.422c-11.729 0-23.362-2.918-33.632-8.438l-1.999-1.073-2.23.411a127.272 127.272 0 0 1-23.31 2.14c-70.239 0-127.373-57.141-127.373-127.367 0-8.516.874-17.14 2.584-25.63l.482-2.41-1.24-2.121a71.117 71.117 0 0 1-9.775-35.984c0-39.236 31.929-71.158 71.164-71.158a70.888 70.888 0 0 1 37.854 10.926l2.089 1.317 2.442-.424a127.462 127.462 0 0 1 21.781-1.864c70.232 0 127.361 57.128 127.361 127.348 0 9.178-.996 18.374-2.956 27.346l-.482 2.211 1.003 2.024c4.917 9.872 7.404 20.502 7.404 31.594-.003 39.236-31.931 71.152-71.167 71.152z" fill="#FFF"/></svg>