<svg xmlns="http://www.w3.org/2000/svg" width="512" height="512"><path d="M476.294 126.453H348.813v-22.251c0-22.589-18.378-40.967-40.967-40.967H204.154c-22.589 0-40.967 18.378-40.967 40.967v22.251H35.706C16.018 126.453 0 142.471 0 162.158v250.9c0 19.689 16.018 35.706 35.706 35.706h440.587c19.689 0 35.706-16.018 35.706-35.706v-250.9c.001-19.687-16.017-35.705-35.705-35.705zm-292.708-22.251c0-11.342 9.227-20.569 20.569-20.569h103.691c11.341 0 20.569 9.227 20.569 20.569v22.251H183.586v-22.251zm308.016 308.857c0 8.441-6.867 15.308-15.308 15.308H35.706c-8.441 0-15.308-6.866-15.308-15.308V216.248L176.992 292.2c3.174 19.356 20.012 34.174 40.251 34.174h77.514c20.239 0 37.077-14.818 40.251-34.174l97.809-47.442c5.068-2.458 7.183-8.559 4.725-13.627-2.457-5.069-8.558-7.185-13.627-4.725l-91.205 44.238c-5.974-15.128-20.729-25.863-37.953-25.863h-77.514c-17.224 0-31.98 10.736-37.953 25.863L20.398 193.577v-31.419c0-8.44 6.867-15.307 15.308-15.307h440.587c8.44 0 15.308 6.866 15.308 15.307v250.901zM196.845 285.578c0-11.248 9.151-20.398 20.398-20.398h77.514c11.248 0 20.398 9.151 20.398 20.398s-9.151 20.398-20.398 20.398h-77.514c-11.248 0-20.398-9.151-20.398-20.398z" fill="#FFF"/><path d="M477.458 211.773c-2.457-5.07-8.559-7.183-13.627-4.727l-6.258 3.035c-5.069 2.458-7.184 8.56-4.727 13.627a10.2 10.2 0 0 0 13.627 4.727l6.258-3.035c5.069-2.458 7.184-8.56 4.727-13.627z" fill="#FFF"/></svg>