<svg xmlns="http://www.w3.org/2000/svg" viewBox="0 0 468.293 468.293"><path d="M309.397 221.498c0-.067 0-.067-.067-.067-3.499-44.625-11.109-91.607-21.518-130.774H180.496c-10.417 39.146-18.036 86.098-21.534 130.707 0 0 0 .067-.067.067-1.004 13.329-1.741 26.457-2.009 39.049-.067 4.488-.134 8.841-.134 13.194 0 5.292.067 10.449.268 15.338.737 25.854 3.617 46.149 8.171 62.223h137.977c4.487-16.075 7.367-36.369 8.104-62.223.201-4.889.268-10.047.268-15.338 0-4.353-.067-8.707-.134-13.194-.267-12.591-1.005-25.652-2.009-38.982z" fill="#27a2db"/><circle cx="234.146" cy="190.008" r="43.014" fill="#ebf0f3"/><path d="M165.259 351.237l-64.434 66.979v-85.331c0-42.532 54.655-107.434 58.071-111.453-1.004 13.329-1.742 26.457-2.009 39.048-.067 4.488-.134 8.842-.134 13.195 0 5.292.067 10.449.268 15.338.737 25.855 3.617 46.149 8.171 62.224h.067zm202.209-18.352v85.331l-64.434-66.979h.134c4.487-16.075 7.368-36.369 8.104-62.224.201-4.889.268-10.047.268-15.338 0-4.353-.067-8.707-.134-13.195-.268-12.591-1.005-25.653-2.009-38.981 3.751 4.421 58.071 68.987 58.071 111.386z" fill="#64798a"/><path fill="#44c4a1" d="M210.439 468.293h-47.414l22.712-117.056h32.273z"/><path fill="#e56353" d="M257.853 468.293h-47.414l7.571-117.056h32.273z"/><path fill="#fcd462" d="M305.267 468.293h-47.414l-7.57-117.056h32.273z"/><path d="M234.18 0c-20.84 0-39.764 38.349-53.684 90.657h107.316C273.913 38.351 255.014 0 234.18 0z" fill="#64798a"/></svg>