<svg xmlns="http://www.w3.org/2000/svg" viewBox="0 0 444.461 444.461" width="512" height="512"><path d="M344.733 211.812c-5.131-5.12-11.904-7.879-19.193-7.766-5.668.088-10.92 2.016-15.207 5.216-4.353-10.974-15.075-18.754-27.58-18.754a29.508 29.508 0 0 0-17.7 5.875c-3.434-12.577-14.962-21.849-28.613-21.849a29.49 29.49 0 0 0-16.655 5.13l.001-81.24c0-16.352-13.303-29.655-29.655-29.655-7.916 0-15.364 3.081-20.974 8.681-5.602 5.604-8.688 13.052-8.688 20.974V224.1a40.54 40.54 0 0 0-7.217-.642c-14.746 0-26.743 11.979-26.743 26.703 0 1.197.085 2.426.252 3.653a21.282 21.282 0 0 1-4.895 16.668l-8.853 10.368c-8.433 9.866-10.318 23.834-4.803 35.582l25.936 55.335a56.163 56.163 0 0 0 19.764 22.948c5.18 3.443 9.423 5.948 12.605 7.444a13.317 13.317 0 0 1 5.581 4.926 13.24 13.24 0 0 1 2.07 7.12v23.756a6.5 6.5 0 0 0 6.5 6.5h154.448c3.59 0 6.5-2.91 6.498-6.501 0-14.511 2.065-28.933 6.136-42.864a118.6 118.6 0 0 0 4.764-33.285V230.593c0-7.095-2.761-13.763-7.779-18.781zm-5.22 150c0 10.036-1.427 20.008-4.242 29.638a165.8 165.8 0 0 0-6.53 40.011H187.168v-17.256c0-5.008-1.42-9.884-4.098-14.091a26.288 26.288 0 0 0-11.018-9.717c-2.575-1.211-6.361-3.462-10.947-6.509a43.15 43.15 0 0 1-15.187-17.638l-25.938-55.339a20.151 20.151 0 0 1 2.918-21.618l8.855-10.372a34.296 34.296 0 0 0 7.888-26.864 13.805 13.805 0 0 1-.133-1.897c0-7.556 6.165-13.703 13.743-13.703 2.47 0 4.885.323 7.217.962v67.85a6.5 6.5 0 1 0 13 0V98.424c0-4.449 1.733-8.633 4.877-11.777a16.574 16.574 0 0 1 11.785-4.878c9.183 0 16.655 7.472 16.655 16.655l-.002 136.086a6.5 6.5 0 1 0 13 0v-30.44c.065-9.129 7.512-16.536 16.656-16.536 9.184 0 16.656 7.472 16.656 16.656v15.976a6.5 6.5 0 1 0 13 0c0-9.185 7.473-16.657 16.657-16.657s16.656 7.472 16.656 16.658l.002 10.879a6.5 6.5 0 0 0 13-.001c0-7.605 5.98-13.885 13.332-14a13.496 13.496 0 0 1 9.803 3.965 13.459 13.459 0 0 1 3.967 9.584v131.218z" data-original="#000000" class="active-path" data-old_color="#18cfab" fill="#18cfab"/><path d="M230.908 139.635a6.5 6.5 0 0 0 9.143-.951c9.258-11.408 14.357-25.789 14.357-40.494 0-35.444-28.836-64.28-64.28-64.28-35.443 0-64.279 28.836-64.279 64.28a64.338 64.338 0 0 0 15.087 41.376 6.488 6.488 0 0 0 4.976 2.314 6.5 6.5 0 0 0 4.969-10.686 51.32 51.32 0 0 1-12.032-33.004c0-28.276 23.004-51.28 51.279-51.28 28.276 0 51.28 23.004 51.28 51.28 0 11.9-3.96 23.071-11.451 32.302a6.499 6.499 0 0 0 .951 9.143z" data-original="#000000" class="active-path" data-old_color="#18cfab" fill="#18cfab"/><path d="M142.769 184.201a6.501 6.501 0 0 0 6.282-11.382c-27.203-15.01-44.101-43.606-44.101-74.629 0-46.974 38.212-85.19 85.18-85.19 46.974 0 85.19 38.216 85.19 85.19 0 22.72-8.842 44.091-24.9 60.178a6.5 6.5 0 0 0 9.201 9.184c18.507-18.541 28.699-43.174 28.699-69.362C288.32 44.048 244.273 0 190.13 0c-54.137 0-98.18 44.048-98.18 98.19 0 35.757 19.472 68.714 50.819 86.011z" data-original="#000000" class="active-path" data-old_color="#18cfab" fill="#18cfab"/></svg>